<?xml version="1.0" encoding="utf-8"?>
<!-- Generator: Adobe Illustrator 19.0.0, SVG Export Plug-In . SVG Version: 6.00 Build 0)  -->
<svg version="1.1" xmlns="http://www.w3.org/2000/svg" xmlns:xlink="http://www.w3.org/1999/xlink" x="0px" y="0px"
	 viewBox="0 0 612 792" style="enable-background:new 0 0 612 792;" xml:space="preserve">
<style type="text/css">
	.st0{fill:url(#SVGID_1_);}
	.st1{fill:#E15854;}
	.st2{fill:#E36662;}
</style>
<g id="Слой_2">
	<linearGradient id="SVGID_1_" gradientUnits="userSpaceOnUse" x1="314.5872" y1="322.1609" x2="314.5872" y2="467.1609">
		<stop  offset="0" style="stop-color:#FFFFFF"/>
		<stop  offset="1" style="stop-color:#F2F2F2"/>
	</linearGradient>
	<circle class="st0" cx="314.6" cy="394.7" r="72.5"/>
</g>
<g id="Слой_1">
	<g>
		<path class="st1" d="M331.5,435.7c-6.7-0.4-12.4-2.5-17.9-5.4c-17-9.2-29.9-22.5-39.2-39.4c-1.9-3.5-3.3-7.3-4.3-11.1
			c-2.3-9.2,0.6-15.5,8.9-20c1.1-0.6,2.5-1.3,3.7-1.3c7.3,0.2,10.3,5.8,13.5,11.1c2.5,4.2,2.5,8.6-1.3,11.8
			c-4.2,3.5-3.2,6.8-0.6,10.3c5.5,7.4,12,13.8,19.4,19.3c3.3,2.4,6.3,3.1,9.5-0.6c3.4-4,7.7-4.2,12.2-1.6c1.6,0.9,3.2,1.9,4.6,3
			c5.6,4.3,7.4,8.2,6,12.5C344.1,430,336.6,435.7,331.5,435.7z"/>
		<path class="st2" d="M319.1,361.1c-1.3,0.3-3.9,0.9-6.5,1.4c-1.2,0.3-2.8,1.3-3.3-0.6c-0.4-1.4,1.3-1.6,2.3-2.1
			c8.4-3.6,20.2-1.2,27.2,6c6.9,7,9.3,15.5,6.9,25.2c-0.4,1.4-0.4,4.1-2.5,3.6c-2.6-0.6-0.6-2.8-0.3-4.1
			C346.5,375.1,335.7,361.1,319.1,361.1z"/>
		<path class="st2" d="M331.1,386.2c0.6-8.2-4.7-13.2-12.9-12.2c-1.3,0.2-3.4,1.6-3.6-0.7c-0.2-1.7,2-1.9,3.4-2.2
			c9.1-1.8,17.3,5.9,16,15.2c-0.2,1.5-0.1,4-2.3,3.6C329.5,389.5,331.4,387.3,331.1,386.2z"/>
	</g>
</g>
</svg>
