<?xml version="1.0" encoding="utf-8"?>
<!-- Generator: Adobe Illustrator 19.0.0, SVG Export Plug-In . SVG Version: 6.00 Build 0)  -->
<svg version="1.1" xmlns="http://www.w3.org/2000/svg" xmlns:xlink="http://www.w3.org/1999/xlink" x="0px" y="0px"
	 viewBox="0 0 612 792" style="enable-background:new 0 0 612 792;" xml:space="preserve">
<style type="text/css">
	.st0{fill:url(#SVGID_1_);}
	.st1{fill:#E15A55;}
</style>
<g id="Слой_2">
	<linearGradient id="SVGID_1_" gradientUnits="userSpaceOnUse" x1="306.25" y1="323.3508" x2="306.25" y2="468.3508">
		<stop  offset="0" style="stop-color:#FFFFFF"/>
		<stop  offset="1" style="stop-color:#F2F2F2"/>
	</linearGradient>
	<circle class="st0" cx="306.2" cy="395.9" r="72.5"/>
</g>
<g id="Слой_1">
	<g>
		<path class="st1" d="M331.3,389c0.1,5.1-1.1,9.9-3.6,14.4c-1.3,2.3-1.1,3.7,0.8,5.5c4.4,4.1,8.5,8.4,12.7,12.7
			c4.4,4.5,5,8,1.7,11.2c-3.2,3.1-6.6,2.5-11.2-2.1c-4.1-4.1-8.4-8.1-12.3-12.4c-1.9-2.1-3.3-2.1-5.9-0.9c-12.7,6-24.6,4.4-35.3-4.6
			c-9.6-8-13.3-22-9-34.1c4.7-13,14.3-20.2,27.9-21.6C315.3,355.3,331.3,370.5,331.3,389z M299.2,409.7c11.2,0.1,20.7-9.1,21-20.4
			s-9.3-21.1-20.8-21.1c-11.2,0-20.7,9.4-20.8,20.7C278.6,400,288,409.6,299.2,409.7z"/>
	</g>
</g>
</svg>
