<?xml version="1.0" encoding="utf-8"?>
<!-- Generator: Adobe Illustrator 19.0.0, SVG Export Plug-In . SVG Version: 6.00 Build 0)  -->
<svg version="1.1" xmlns="http://www.w3.org/2000/svg" xmlns:xlink="http://www.w3.org/1999/xlink" x="0px" y="0px"
	 viewBox="0 0 612 792" style="enable-background:new 0 0 612 792;" xml:space="preserve">
<style type="text/css">
	.st0{fill:url(#SVGID_1_);}
	.st1{fill:#E05753;}
	.st2{fill:#E15B56;}
</style>
<g id="Слой_2">
	<linearGradient id="SVGID_1_" gradientUnits="userSpaceOnUse" x1="306.4647" y1="323.1055" x2="306.4647" y2="468.1055">
		<stop  offset="0" style="stop-color:#FFFFFF"/>
		<stop  offset="1" style="stop-color:#F2F2F2"/>
	</linearGradient>
	<circle class="st0" cx="306.5" cy="395.6" r="72.5"/>
</g>
<g id="Слой_1">
	<g>
		<path class="st1" d="M328.8,411.6c0-12.9,0-25.9,0-38.8c0-7.9,0.8-6.8-7-6.8c-11.3-0.1-22.7,0.1-34-0.1c-3.3-0.1-4.6,0.7-4.6,4.4
			c0.2,15.8,0.2,31.6,0,47.5c0,3.2,0.9,4.4,4.2,4.3c5.5-0.2,11.1,0.5,16.5-0.2c6.7-0.9,9.5,2.8,12.1,8.6c-12.7,0-24.9,0-37.1,0
			c-2.9,0-4.1-1.9-4.1-4.6c0-21.2,0-42.3,0-63.5c0-3.5,1.7-5.1,5.3-5.1c17.3,0,34.6,0,52,0c3.5,0,5.2,1.7,5.2,5.2
			c0,13.7,0,27.3,0,41C337.2,408.2,332.4,409,328.8,411.6z"/>
		<path class="st2" d="M327.1,436c-1.4,0-2-1.1-2.7-2c-4.2-5.8-8.3-11.7-12.4-17.5c-0.9-1.2-1.9-2.6-0.7-4c1.3-1.4,2.7-0.5,4,0.3
			c2.6,1.5,5.4,2.8,7.7,4.6c3,2.4,5.2,1.6,7.7-0.7c4.7-4.2,9.7-8.1,14.5-12.2c1.2-1,2.5-2.2,4-1.1c1.7,1.4,0.6,3-0.4,4.4
			c-6.4,8.7-12.8,17.4-19.2,26.1C329.1,434.9,328.5,436,327.1,436z"/>
		<path class="st2" d="M305.9,381c-4,0-8,0-12,0c-2.8,0-4.9-1.2-5-4.4c0-3.1,1.9-4.4,4.8-4.4c8.1,0,16.3,0,24.4,0
			c2.9,0,4.9,1.2,5,4.3c0,3.1-2,4.4-4.8,4.5C314.2,381,310,381,305.9,381z"/>
		<path class="st2" d="M306.2,385.1c4,0,8,0,11.9,0c2.9,0,4.9,1.1,5,4.3c0.1,3.2-2.1,4.5-4.8,4.5c-8.1,0.1-16.3,0.1-24.4,0
			c-2.7,0-5-1.1-5-4.3c0-3.4,2.2-4.5,5.3-4.5C298.2,385.1,302.2,385.1,306.2,385.1z"/>
		<path class="st2" d="M306,406.9c-4,0-8,0.1-11.9,0c-2.9-0.1-5.3-1.2-5.1-4.7c0.2-3.1,2.3-4.1,5.1-4.1c8,0,15.9,0,23.9,0
			c2.9,0,5,1,5.1,4.1c0.2,3.5-2.2,4.6-5.2,4.7C314,407,310,406.9,306,406.9z"/>
	</g>
</g>
</svg>
