<?xml version="1.0" encoding="utf-8"?>
<!-- Generator: Adobe Illustrator 19.0.0, SVG Export Plug-In . SVG Version: 6.00 Build 0)  -->
<svg version="1.1" xmlns="http://www.w3.org/2000/svg" xmlns:xlink="http://www.w3.org/1999/xlink" x="0px" y="0px"
	 viewBox="0 0 612 792" style="enable-background:new 0 0 612 792;" xml:space="preserve">
<style type="text/css">
	.st0{fill:url(#SVGID_1_);}
	.st1{fill:#E15954;}
</style>
<g id="Слой_2">
	<linearGradient id="SVGID_1_" gradientUnits="userSpaceOnUse" x1="306.456" y1="323.3782" x2="306.456" y2="468.3782">
		<stop  offset="0" style="stop-color:#FFFFFF"/>
		<stop  offset="1" style="stop-color:#F2F2F2"/>
	</linearGradient>
	<circle class="st0" cx="306.5" cy="395.9" r="72.5"/>
</g>
<g id="Слой_1">
	<g>
		<path class="st1" d="M281.1,393.3c0-10.5,0-21,0-31.5c0-5.2,1.6-6.9,6.7-7c7.8-0.1,15.7,0.1,23.5-0.1c3-0.1,4.2,0.6,4,3.8
			c-0.3,4.1-0.1,8.3,0,12.5c0.1,4.4,2.4,6.8,6.9,6.7c0.2,0,0.3,0,0.5,0c4,0.2,9.1-1.7,11.6,0.7c2.7,2.7,0.8,7.9,0.8,12
			c0.1,11.7-0.3,23.3,0.2,35c0.2,5.1-3.1,7.8-9.4,7.1c-1.6-0.2-1.7-1.1-1.9-2.4c-0.2-2.4,0.7-4.4,1.7-6.6c2.1-4.2,0.6-9.2-3.1-12
			c-3.6-2.7-8.5-2.6-12,0.2c-3.7,3-4.8,7.7-2.7,12.1c0.4,0.9,1.1,1.7,1.4,2.6c1.6,4.3,0.4,6.1-4.2,6.1c-5.3,0-10.7,0-16,0
			c-6.4-0.1-8-1.6-8-7.9C281.1,414.3,281.1,403.8,281.1,393.3z M307.7,386.6c5.5,0,11,0,16.4,0c1.1,0,2.6,0.1,2.7-1.5
			c0.1-1.7-1.5-1.5-2.6-1.5c-10.6,0-21.3,0-31.9,0c-1.2,0-3-0.5-2.9,1.6c0.1,1.6,1.7,1.3,2.8,1.3
			C297.4,386.6,302.5,386.6,307.7,386.6z M308.1,395c5.1,0,10.3,0,15.4,0c1.2,0,3.1,0.6,3.2-1.3c0.1-2-1.7-1.6-3-1.6
			c-10.5,0-20.9,0-31.4,0c-1.2,0-3.1-0.4-2.9,1.6c0.1,1.9,2,1.3,3.2,1.3C297.8,395,303,395,308.1,395z M308.1,403.8
			c5.2,0,10.3,0,15.5,0c1.2,0,3,0.6,3.2-1.4c0.2-2.1-1.8-1.6-2.9-1.6c-10.5,0-21,0-31.5,0c-1.2,0-3.1-0.5-2.9,1.6
			c0.1,1.9,2,1.4,3.2,1.4C297.8,403.8,302.9,403.8,308.1,403.8z M299.6,377.8c2.7,0,5.3,0,8,0c1,0,2.1-0.1,1.9-1.5
			c-0.1-0.9-0.8-1.4-1.7-1.4c-5.5,0-10.9,0-16.4,0c-1.1,0-2.1,0.3-1.9,1.6c0.1,1.4,1.3,1.3,2.2,1.3
			C294.3,377.9,296.9,377.8,299.6,377.8z M299.4,369L299.4,369c2.7,0.1,5.3,0.1,8,0c0.8,0,1.7,0,1.8-1.2c0-0.9-0.6-1.1-1.3-1.2
			c-5.6,0-11.3,0-16.9,0c-0.6,0-1.3,0.3-1.3,1.2c0,0.9,0.7,1.1,1.3,1.1C293.7,369,296.5,369,299.4,369z"/>
		<path class="st1" d="M335.5,374.9c-5.3,0-9.5,0-13.7,0c-2.5,0-3.6-1.3-3.6-3.7c0-4.9,0-9.9,0-16.5
			C324.3,361.9,329.5,368,335.5,374.9z"/>
		<path class="st1" d="M316.5,426.7c-4-0.1-7.3-3.7-7.1-7.5c0.2-4,3.8-7.2,7.7-6.9c3.8,0.3,6.9,3.5,6.8,7.3
			C323.9,423.5,320.4,426.9,316.5,426.7z"/>
		<path class="st1" d="M312.3,442.9c0-4.8,0.1-8.2,0-11.6c-0.1-2.2,1.4-2.8,2.8-1.9c1.9,1.3,5.8-3.1,6,2.1c0.2,3.4,0,6.8,0,11.6
			C318.2,438.9,315.6,438.4,312.3,442.9z"/>
	</g>
</g>
</svg>
