<?xml version="1.0" encoding="utf-8"?>
<!-- Generator: Adobe Illustrator 19.0.0, SVG Export Plug-In . SVG Version: 6.00 Build 0)  -->
<svg version="1.1" xmlns="http://www.w3.org/2000/svg" xmlns:xlink="http://www.w3.org/1999/xlink" x="0px" y="0px"
	 viewBox="0 0 612 792" style="enable-background:new 0 0 612 792;" xml:space="preserve">
<style type="text/css">
	.st0{fill:url(#SVGID_1_);}
	.st1{fill:#E15A55;}
	.st2{fill:#E15B56;}
</style>
<g id="Слой_2">
	<linearGradient id="SVGID_1_" gradientUnits="userSpaceOnUse" x1="306.5879" y1="323.1342" x2="306.5879" y2="468.1342">
		<stop  offset="0" style="stop-color:#FFFFFF"/>
		<stop  offset="1" style="stop-color:#F2F2F2"/>
	</linearGradient>
	<circle class="st0" cx="306.6" cy="395.6" r="72.5"/>
</g>
<g id="Слой_1">
	<g>
		<path class="st1" d="M327.9,418.8c-13.4-1.3-20.8-10.1-27.2-20.2c-1.8-2.8-3.7-5.5-5.5-8.3c-4.8-7.2-11.4-11-20.1-10.9
			c-3.5,0-7.1-0.1-7-4.9c0.1-4.7,3.6-5.4,7.4-5.3c12.3,0.3,21.5,6.3,28.4,16.1c3.7,5.1,7.1,10.5,10.9,15.5c3.1,4.1,7.1,6.9,12.5,7.4
			c1.2-1.6-0.5-2.8-0.3-4.3c0.3-2,1.2-3.4,3-4.2c2.1-1,4-0.6,5.5,1c3,3.4,5.8,6.9,8.5,10.4c1.8,2.4,1.2,4.7-0.7,6.8
			c-2.6,2.8-5.2,5.6-7.8,8.4c-1.8,2-3.9,3.3-6.5,1.5c-2.4-1.7-3.5-4-1.9-6.9C327.2,420.4,327.5,419.8,327.9,418.8z"/>
		<path class="st1" d="M328,382.9c-6.5,0.8-7.9,1.7-15.6,9.8c-0.1-0.1-0.3-0.1-0.4-0.2c-6.4-7.9-6.1-9.5,2.2-15.3
			c4-2.9,8.7-4,13.4-5c0-1.9-1.7-3.1-1.3-4.8c0.5-2.1,1.5-3.6,3.5-4.5c1.8-0.7,3.3-0.3,4.6,1c3.2,3.3,6.5,6.7,9.5,10.2
			c1.9,2.2,1.3,4.6-0.4,6.8c-2,2.4-4,4.9-6,7.3c-1.9,2.3-3.8,5-7.4,3.3C326.2,389.6,326.7,386.5,328,382.9z"/>
		<path class="st2" d="M297.1,397.8c7.2,10,7.1,10.4-2.1,17.3c-6.1,4.6-13,6.6-20.5,6.7c-3.6,0-6.3-1.3-6.4-5.3s2.7-5,6-4.9
			C284.5,412,291.9,407.1,297.1,397.8z"/>
	</g>
</g>
</svg>
