<?xml version="1.0" encoding="utf-8"?>
<!-- Generator: Adobe Illustrator 23.0.1, SVG Export Plug-In . SVG Version: 6.00 Build 0)  -->
<svg version="1.1" id="Слой_1" xmlns="http://www.w3.org/2000/svg" xmlns:xlink="http://www.w3.org/1999/xlink" x="0px" y="0px"
	 viewBox="0 0 202 37" style="enable-background:new 0 0 202 37;" xml:space="preserve">
<style type="text/css">
	.st0{fill:#CD1020;}
	.st1{fill:none;stroke:#000000;stroke-width:3;stroke-miterlimit:10;}
</style>
<g>
	<path d="M18.33,18.26c0,1.92-0.22,3.58-0.66,4.99c-0.44,1.41-1.07,2.58-1.91,3.51c-0.84,0.93-1.86,1.63-3.07,2.08
		s-2.61,0.69-4.19,0.69c-0.54,0-1.1-0.04-1.67-0.12c-0.57-0.08-1.11-0.19-1.61-0.33c-0.5-0.14-0.95-0.3-1.34-0.49
		c-0.39-0.19-0.67-0.36-0.82-0.51c-0.16-0.15-0.26-0.27-0.31-0.37s-0.09-0.23-0.12-0.39s-0.06-0.35-0.07-0.58s-0.02-0.51-0.02-0.86
		c0-0.54,0.05-0.93,0.15-1.18c0.1-0.24,0.24-0.37,0.43-0.37c0.13,0,0.32,0.09,0.55,0.26s0.55,0.36,0.95,0.56s0.9,0.38,1.5,0.55
		c0.6,0.17,1.34,0.25,2.22,0.25c0.79,0,1.49-0.12,2.13-0.37s1.18-0.63,1.64-1.14c0.46-0.51,0.82-1.15,1.09-1.91s0.42-1.65,0.46-2.67
		H4.72c-0.11,0-0.21-0.03-0.28-0.09c-0.08-0.06-0.14-0.16-0.2-0.29c-0.06-0.13-0.1-0.31-0.12-0.52c-0.03-0.22-0.04-0.48-0.04-0.79
		c0-0.31,0.01-0.58,0.04-0.8c0.03-0.22,0.07-0.4,0.12-0.52c0.06-0.13,0.12-0.22,0.2-0.28c0.08-0.06,0.17-0.09,0.28-0.09h8.87
		c-0.08-0.91-0.26-1.71-0.55-2.4c-0.29-0.69-0.66-1.28-1.13-1.75c-0.46-0.48-1.02-0.83-1.68-1.07c-0.65-0.24-1.37-0.36-2.16-0.36
		c-0.72,0-1.36,0.08-1.91,0.25c-0.55,0.17-1.03,0.35-1.44,0.55c-0.4,0.2-0.73,0.38-0.99,0.56C3.49,12.41,3.3,12.5,3.18,12.5
		c-0.07,0-0.13-0.02-0.19-0.07c-0.06-0.05-0.11-0.13-0.16-0.25c-0.04-0.12-0.08-0.27-0.11-0.47c-0.03-0.2-0.04-0.45-0.04-0.75
		c0-0.33,0.01-0.61,0.02-0.85s0.04-0.42,0.07-0.57S2.85,9.26,2.9,9.15c0.05-0.1,0.13-0.21,0.23-0.31c0.1-0.1,0.32-0.24,0.64-0.42
		C4.1,8.24,4.5,8.07,4.99,7.91c0.49-0.16,1.05-0.3,1.68-0.42C7.3,7.38,7.98,7.32,8.72,7.32c1.47,0,2.8,0.23,3.99,0.69
		c1.19,0.46,2.2,1.15,3.03,2.07c0.83,0.92,1.47,2.06,1.92,3.43C18.11,14.87,18.33,16.46,18.33,18.26z"/>
	<path d="M37.89,28.58c0,0.12-0.03,0.22-0.1,0.31s-0.19,0.15-0.36,0.21c-0.17,0.06-0.4,0.1-0.69,0.13
		c-0.29,0.03-0.66,0.04-1.11,0.04c-0.48,0-0.86-0.01-1.15-0.04c-0.29-0.03-0.53-0.07-0.71-0.13c-0.18-0.06-0.31-0.14-0.4-0.25
		c-0.09-0.11-0.16-0.24-0.2-0.39l-1.73-4.78c-0.24-0.7-0.5-1.28-0.76-1.75s-0.56-0.85-0.88-1.15c-0.32-0.29-0.69-0.5-1.1-0.62
		c-0.41-0.12-0.87-0.18-1.38-0.18h-0.98v8.6c0,0.12-0.03,0.22-0.1,0.31s-0.18,0.16-0.35,0.22s-0.39,0.1-0.66,0.13
		c-0.28,0.03-0.63,0.04-1.06,0.04c-0.42,0-0.77-0.01-1.05-0.04c-0.28-0.03-0.51-0.07-0.67-0.13s-0.29-0.13-0.36-0.22
		c-0.07-0.08-0.11-0.19-0.11-0.31V8.26c0-0.12,0.04-0.22,0.11-0.31c0.07-0.08,0.19-0.15,0.36-0.21c0.17-0.06,0.39-0.1,0.67-0.12
		c0.28-0.03,0.63-0.04,1.05-0.04c0.43,0,0.79,0.01,1.06,0.04c0.28,0.03,0.5,0.07,0.66,0.12c0.17,0.06,0.28,0.12,0.35,0.21
		s0.1,0.19,0.1,0.31v8.07h0.98c0.5,0,0.94-0.07,1.31-0.2c0.38-0.13,0.72-0.34,1.02-0.63c0.3-0.29,0.58-0.66,0.83-1.12
		c0.25-0.46,0.49-1.03,0.72-1.7l1.44-4.28c0.06-0.15,0.12-0.28,0.2-0.39c0.08-0.1,0.2-0.19,0.37-0.25c0.17-0.06,0.4-0.1,0.68-0.13
		c0.28-0.03,0.66-0.04,1.14-0.04c0.43,0,0.79,0.01,1.07,0.04c0.28,0.03,0.5,0.07,0.66,0.12c0.16,0.05,0.27,0.12,0.32,0.2
		c0.06,0.08,0.08,0.19,0.08,0.31c0,0.14-0.02,0.32-0.07,0.53c-0.05,0.21-0.14,0.49-0.26,0.83l-1.44,3.82
		c-0.27,0.71-0.53,1.31-0.8,1.81s-0.55,0.92-0.84,1.27c-0.29,0.35-0.6,0.63-0.93,0.85c-0.33,0.22-0.69,0.4-1.09,0.55v0.02
		c0.44,0.19,0.84,0.4,1.2,0.64c0.36,0.24,0.7,0.54,1.01,0.9s0.62,0.81,0.9,1.34c0.29,0.53,0.58,1.18,0.88,1.96l1.76,4.45
		c0.18,0.45,0.28,0.77,0.32,0.94S37.89,28.47,37.89,28.58z"/>
</g>
<g>
	<path class="st0" d="M71.58,28.58c0,0.12-0.03,0.22-0.1,0.31s-0.19,0.15-0.36,0.21c-0.17,0.06-0.4,0.1-0.69,0.13
		c-0.29,0.03-0.66,0.04-1.11,0.04c-0.48,0-0.86-0.01-1.15-0.04c-0.29-0.03-0.53-0.07-0.71-0.13c-0.18-0.06-0.31-0.14-0.4-0.25
		c-0.09-0.11-0.16-0.24-0.2-0.39l-1.73-4.78c-0.24-0.7-0.5-1.28-0.76-1.75s-0.56-0.85-0.88-1.15c-0.32-0.29-0.69-0.5-1.1-0.62
		c-0.41-0.12-0.87-0.18-1.38-0.18h-0.98v8.6c0,0.12-0.03,0.22-0.1,0.31s-0.18,0.16-0.35,0.22s-0.39,0.1-0.66,0.13
		c-0.28,0.03-0.63,0.04-1.06,0.04c-0.42,0-0.77-0.01-1.05-0.04c-0.28-0.03-0.51-0.07-0.67-0.13s-0.29-0.13-0.36-0.22
		c-0.07-0.08-0.11-0.19-0.11-0.31V8.27c0-0.12,0.04-0.22,0.11-0.31c0.07-0.08,0.19-0.15,0.36-0.21c0.17-0.06,0.39-0.1,0.67-0.12
		c0.28-0.03,0.63-0.04,1.05-0.04c0.43,0,0.79,0.01,1.06,0.04c0.28,0.03,0.5,0.07,0.66,0.12c0.17,0.06,0.28,0.12,0.35,0.21
		s0.1,0.19,0.1,0.31v8.07h0.98c0.5,0,0.94-0.07,1.31-0.2c0.38-0.13,0.72-0.34,1.02-0.63c0.3-0.29,0.58-0.66,0.83-1.12
		c0.25-0.46,0.49-1.03,0.72-1.7l1.44-4.28c0.06-0.15,0.12-0.28,0.2-0.39c0.08-0.1,0.2-0.19,0.37-0.25c0.17-0.06,0.4-0.1,0.68-0.13
		c0.28-0.03,0.66-0.04,1.14-0.04c0.43,0,0.79,0.01,1.07,0.04c0.28,0.03,0.5,0.07,0.66,0.12c0.16,0.05,0.27,0.12,0.32,0.2
		c0.06,0.08,0.08,0.19,0.08,0.31c0,0.14-0.02,0.32-0.07,0.53c-0.05,0.21-0.14,0.49-0.26,0.83l-1.44,3.82
		c-0.27,0.71-0.53,1.31-0.8,1.81s-0.55,0.92-0.84,1.27c-0.29,0.35-0.6,0.63-0.93,0.85c-0.33,0.22-0.69,0.4-1.09,0.55v0.02
		c0.44,0.19,0.84,0.4,1.2,0.64c0.36,0.24,0.7,0.54,1.01,0.9s0.62,0.81,0.9,1.34c0.29,0.53,0.58,1.18,0.88,1.96l1.76,4.45
		c0.18,0.45,0.28,0.77,0.32,0.94S71.58,28.47,71.58,28.58z"/>
	<path class="st0" d="M93.28,18.18c0,1.78-0.22,3.38-0.66,4.78c-0.44,1.41-1.1,2.6-1.98,3.58c-0.87,0.98-1.96,1.73-3.25,2.24
		c-1.29,0.51-2.78,0.77-4.47,0.77c-1.67,0-3.13-0.22-4.37-0.66c-1.25-0.44-2.28-1.1-3.11-2s-1.45-2.04-1.87-3.42
		c-0.42-1.38-0.62-3.02-0.62-4.91c0-1.74,0.22-3.3,0.66-4.69c0.44-1.39,1.1-2.57,1.98-3.54c0.87-0.97,1.96-1.72,3.25-2.24
		c1.29-0.52,2.79-0.78,4.49-0.78c1.63,0,3.06,0.22,4.31,0.65s2.29,1.1,3.12,1.99c0.84,0.9,1.47,2.03,1.89,3.4
		C93.06,14.7,93.28,16.32,93.28,18.18z M88.7,18.41c0-1.13-0.09-2.16-0.27-3.08c-0.18-0.92-0.48-1.72-0.9-2.37
		c-0.43-0.66-0.99-1.17-1.7-1.53c-0.71-0.36-1.59-0.54-2.66-0.54c-1.07,0-1.97,0.2-2.69,0.61c-0.72,0.4-1.3,0.94-1.74,1.62
		c-0.44,0.68-0.76,1.46-0.94,2.37c-0.18,0.9-0.27,1.86-0.27,2.86c0,1.17,0.09,2.23,0.27,3.16c0.18,0.94,0.48,1.73,0.9,2.4
		c0.42,0.66,0.98,1.17,1.69,1.52c0.71,0.35,1.6,0.52,2.67,0.52c1.07,0,1.97-0.2,2.69-0.6c0.72-0.4,1.3-0.94,1.74-1.63
		c0.44-0.69,0.76-1.49,0.94-2.4S88.7,19.44,88.7,18.41z"/>
</g>
<line class="st1" x1="46.17" y1="5" x2="46.17" y2="32"/>
<g>
	<path class="st0" d="M117,9.68c0,0.79-0.09,1.47-0.27,2.05c-0.18,0.58-0.44,1.06-0.79,1.45c-0.34,0.38-0.77,0.67-1.26,0.86
		c-0.5,0.19-1.08,0.28-1.73,0.28c-0.22,0-0.45-0.02-0.69-0.05c-0.23-0.03-0.46-0.08-0.66-0.14c-0.21-0.06-0.39-0.12-0.55-0.2
		c-0.16-0.08-0.27-0.15-0.34-0.21s-0.11-0.11-0.13-0.15c-0.02-0.04-0.04-0.09-0.05-0.16s-0.02-0.15-0.03-0.24
		c-0.01-0.09-0.01-0.21-0.01-0.35c0-0.22,0.02-0.39,0.06-0.49s0.1-0.15,0.18-0.15c0.05,0,0.13,0.04,0.23,0.11s0.23,0.15,0.39,0.23
		s0.37,0.16,0.62,0.23c0.25,0.07,0.55,0.1,0.91,0.1c0.32,0,0.62-0.05,0.88-0.15s0.48-0.26,0.67-0.47c0.19-0.21,0.34-0.47,0.45-0.79
		s0.17-0.68,0.19-1.1h-3.67c-0.05,0-0.08-0.01-0.12-0.04s-0.06-0.06-0.08-0.12s-0.04-0.13-0.05-0.22c-0.01-0.09-0.02-0.2-0.02-0.32
		s0.01-0.24,0.02-0.33c0.01-0.09,0.03-0.16,0.05-0.22s0.05-0.09,0.08-0.12s0.07-0.04,0.12-0.04h3.65c-0.03-0.37-0.11-0.7-0.23-0.99
		s-0.27-0.53-0.46-0.72s-0.42-0.34-0.69-0.44s-0.57-0.15-0.89-0.15c-0.3,0-0.56,0.03-0.79,0.1s-0.42,0.14-0.59,0.23
		c-0.17,0.08-0.3,0.16-0.41,0.23s-0.18,0.11-0.23,0.11c-0.03,0-0.05-0.01-0.08-0.03c-0.02-0.02-0.05-0.05-0.06-0.1
		s-0.03-0.11-0.04-0.19c-0.01-0.08-0.02-0.18-0.02-0.31c0-0.14,0-0.25,0.01-0.35c0.01-0.1,0.02-0.17,0.03-0.24s0.03-0.11,0.05-0.16
		c0.02-0.04,0.05-0.09,0.1-0.13c0.04-0.04,0.13-0.1,0.26-0.17s0.3-0.15,0.5-0.21c0.2-0.07,0.43-0.12,0.69-0.17
		c0.26-0.05,0.54-0.07,0.84-0.07c0.61,0,1.15,0.09,1.64,0.28c0.49,0.19,0.91,0.47,1.25,0.85s0.61,0.85,0.79,1.41
		C116.91,8.28,117,8.93,117,9.68z"/>
	<path class="st0" d="M124.13,14c0,0.04-0.01,0.07-0.04,0.09c-0.03,0.02-0.07,0.05-0.13,0.06s-0.15,0.03-0.26,0.04
		c-0.11,0.01-0.25,0.01-0.42,0.01c-0.19,0-0.35,0-0.47-0.01s-0.22-0.02-0.29-0.04s-0.13-0.04-0.16-0.07s-0.06-0.07-0.08-0.12
		l-0.57-1.46c-0.07-0.2-0.14-0.36-0.22-0.49c-0.08-0.13-0.17-0.24-0.26-0.32s-0.21-0.14-0.33-0.17s-0.26-0.05-0.42-0.05h-0.35v2.49
		c0,0.03-0.02,0.06-0.05,0.09s-0.08,0.06-0.15,0.08s-0.16,0.04-0.27,0.05s-0.24,0.02-0.4,0.02c-0.16,0-0.29-0.01-0.4-0.02
		s-0.2-0.03-0.27-0.05s-0.12-0.05-0.15-0.08c-0.03-0.03-0.04-0.06-0.04-0.09V7.8c0-0.03,0.01-0.06,0.04-0.09
		c0.03-0.03,0.08-0.05,0.15-0.08s0.16-0.04,0.27-0.05s0.24-0.02,0.4-0.02c0.16,0,0.29,0.01,0.4,0.02s0.2,0.03,0.27,0.05
		s0.12,0.05,0.15,0.08s0.05,0.06,0.05,0.09v2.37h0.35c0.14,0,0.27-0.02,0.38-0.05s0.22-0.09,0.31-0.17
		c0.09-0.08,0.18-0.19,0.26-0.32c0.08-0.13,0.16-0.3,0.23-0.49l0.51-1.31c0.01-0.05,0.04-0.09,0.07-0.12s0.08-0.06,0.15-0.08
		c0.07-0.02,0.16-0.04,0.27-0.04c0.12-0.01,0.27-0.01,0.46-0.01c0.17,0,0.31,0,0.41,0.01c0.11,0.01,0.19,0.02,0.25,0.04
		c0.06,0.02,0.1,0.04,0.13,0.06s0.03,0.06,0.03,0.09c0,0.05-0.01,0.1-0.03,0.16s-0.05,0.15-0.1,0.26l-0.49,1.16
		c-0.1,0.23-0.2,0.43-0.3,0.59c-0.11,0.16-0.22,0.29-0.33,0.4c-0.11,0.1-0.22,0.19-0.34,0.25s-0.22,0.11-0.33,0.15v0.01
		c0.14,0.06,0.27,0.12,0.4,0.19s0.24,0.16,0.35,0.27c0.11,0.11,0.22,0.25,0.32,0.41c0.1,0.16,0.2,0.36,0.3,0.58l0.59,1.37
		c0.03,0.06,0.05,0.11,0.06,0.15c0.02,0.04,0.03,0.08,0.04,0.12s0.01,0.06,0.02,0.09C124.13,13.96,124.13,13.98,124.13,14z"/>
	<path d="M131.25,10.82c0,0.52-0.07,0.99-0.21,1.42s-0.34,0.8-0.62,1.11s-0.63,0.55-1.05,0.72s-0.91,0.25-1.47,0.25
		c-0.54,0-1.01-0.08-1.42-0.23s-0.73-0.37-1-0.66s-0.46-0.64-0.59-1.06s-0.19-0.9-0.19-1.44c0-0.52,0.07-0.99,0.21-1.43
		c0.14-0.43,0.35-0.8,0.63-1.11s0.63-0.55,1.04-0.71c0.42-0.17,0.91-0.25,1.47-0.25c0.55,0,1.02,0.07,1.42,0.22s0.73,0.37,1,0.65
		c0.26,0.29,0.46,0.64,0.58,1.06S131.25,10.28,131.25,10.82z M129.48,10.89c0-0.3-0.02-0.58-0.07-0.83
		c-0.05-0.25-0.13-0.47-0.24-0.66s-0.27-0.33-0.45-0.44c-0.19-0.1-0.43-0.16-0.71-0.16c-0.25,0-0.48,0.05-0.67,0.14
		s-0.35,0.23-0.47,0.41s-0.22,0.4-0.28,0.65c-0.06,0.25-0.09,0.54-0.09,0.86c0,0.3,0.03,0.58,0.08,0.83s0.13,0.47,0.24,0.66
		c0.11,0.19,0.26,0.33,0.46,0.43s0.43,0.15,0.71,0.15c0.26,0,0.49-0.05,0.68-0.14s0.35-0.23,0.47-0.41s0.21-0.39,0.27-0.65
		S129.48,11.22,129.48,10.89z"/>
	<path d="M138.01,13.93c0,0.05-0.01,0.09-0.04,0.12s-0.07,0.06-0.14,0.09s-0.15,0.04-0.26,0.05c-0.11,0.01-0.25,0.02-0.41,0.02
		c-0.17,0-0.31-0.01-0.42-0.02c-0.11-0.01-0.2-0.03-0.27-0.05c-0.07-0.02-0.11-0.05-0.14-0.09c-0.02-0.03-0.04-0.07-0.04-0.12V9.01
		h-1.24c-0.07,0.72-0.16,1.34-0.27,1.88c-0.11,0.54-0.23,1.01-0.37,1.4s-0.3,0.72-0.47,0.97c-0.17,0.26-0.36,0.46-0.56,0.61
		s-0.43,0.26-0.67,0.32c-0.24,0.06-0.49,0.1-0.76,0.1c-0.06,0-0.12-0.01-0.16-0.03s-0.07-0.05-0.1-0.11s-0.04-0.13-0.05-0.23
		s-0.01-0.23-0.01-0.4c0-0.17,0-0.31,0.01-0.41c0.01-0.1,0.02-0.19,0.04-0.24s0.04-0.09,0.08-0.11s0.07-0.03,0.12-0.03
		c0.13,0,0.25-0.03,0.37-0.08c0.12-0.05,0.22-0.15,0.33-0.28c0.1-0.13,0.2-0.31,0.29-0.53s0.18-0.5,0.25-0.84s0.15-0.74,0.22-1.21
		s0.13-1.01,0.2-1.63c0.01-0.19,0.05-0.33,0.12-0.42c0.07-0.09,0.19-0.14,0.34-0.14h3.53c0.16,0,0.28,0.05,0.36,0.14
		s0.12,0.23,0.12,0.42V13.93z"/>
	<path d="M145.9,10.82c0,0.52-0.07,0.99-0.21,1.42s-0.34,0.8-0.62,1.11s-0.63,0.55-1.05,0.72s-0.91,0.25-1.47,0.25
		c-0.54,0-1.01-0.08-1.42-0.23s-0.73-0.37-1-0.66s-0.46-0.64-0.59-1.06s-0.19-0.9-0.19-1.44c0-0.52,0.07-0.99,0.21-1.43
		c0.14-0.43,0.35-0.8,0.63-1.11s0.63-0.55,1.04-0.71c0.42-0.17,0.91-0.25,1.47-0.25c0.55,0,1.02,0.07,1.42,0.22s0.73,0.37,1,0.65
		c0.26,0.29,0.46,0.64,0.58,1.06S145.9,10.28,145.9,10.82z M144.13,10.89c0-0.3-0.02-0.58-0.07-0.83c-0.05-0.25-0.13-0.47-0.24-0.66
		s-0.27-0.33-0.45-0.44c-0.19-0.1-0.43-0.16-0.71-0.16c-0.25,0-0.48,0.05-0.67,0.14s-0.35,0.23-0.47,0.41s-0.22,0.4-0.28,0.65
		c-0.06,0.25-0.09,0.54-0.09,0.86c0,0.3,0.03,0.58,0.08,0.83s0.13,0.47,0.24,0.66c0.11,0.19,0.26,0.33,0.46,0.43
		s0.43,0.15,0.71,0.15c0.26,0,0.49-0.05,0.68-0.14s0.35-0.23,0.47-0.41s0.21-0.39,0.27-0.65S144.13,11.22,144.13,10.89z"/>
	<path d="M151.24,8.36c0,0.14-0.01,0.26-0.02,0.36s-0.03,0.18-0.05,0.24s-0.05,0.1-0.08,0.13s-0.07,0.04-0.12,0.04h-1.98v4.81
		c0,0.05-0.01,0.09-0.04,0.12s-0.07,0.06-0.14,0.09c-0.07,0.02-0.15,0.04-0.26,0.05s-0.25,0.02-0.42,0.02s-0.31-0.01-0.42-0.02
		s-0.2-0.03-0.26-0.05c-0.07-0.02-0.11-0.05-0.14-0.09s-0.04-0.07-0.04-0.12V8.16c0-0.18,0.04-0.32,0.12-0.41s0.2-0.14,0.36-0.14
		h3.23c0.05,0,0.08,0.01,0.12,0.04s0.06,0.07,0.08,0.13s0.04,0.14,0.05,0.24S151.24,8.22,151.24,8.36z"/>
	<path d="M158.3,13.95c0,0.05-0.01,0.08-0.04,0.12c-0.03,0.03-0.07,0.06-0.13,0.08s-0.15,0.04-0.26,0.04
		c-0.11,0.01-0.24,0.01-0.41,0.01s-0.3,0-0.41-0.01c-0.11-0.01-0.2-0.02-0.27-0.04c-0.07-0.02-0.12-0.05-0.15-0.08
		c-0.03-0.03-0.04-0.07-0.04-0.12v-2.72c0-0.19,0.01-0.39,0.02-0.59c0.01-0.21,0.03-0.41,0.05-0.6c-0.11,0.19-0.23,0.38-0.36,0.56
		s-0.26,0.37-0.39,0.55l-2.06,2.8c-0.04,0.05-0.08,0.09-0.12,0.13s-0.08,0.06-0.14,0.08c-0.06,0.02-0.13,0.03-0.21,0.04
		s-0.2,0.01-0.33,0.01c-0.16,0-0.3,0-0.4-0.01c-0.1-0.01-0.19-0.02-0.25-0.04c-0.06-0.02-0.11-0.05-0.13-0.08
		c-0.02-0.03-0.04-0.07-0.04-0.12V7.83c0-0.04,0.01-0.08,0.04-0.11c0.03-0.03,0.07-0.06,0.14-0.09c0.07-0.02,0.15-0.04,0.26-0.05
		c0.11-0.01,0.24-0.02,0.41-0.02c0.32,0,0.55,0.02,0.68,0.07s0.2,0.11,0.2,0.2v2.71c0,0.19-0.01,0.38-0.02,0.58
		s-0.03,0.39-0.05,0.58c0.11-0.18,0.22-0.36,0.33-0.54s0.23-0.35,0.36-0.52l2.08-2.8c0.04-0.05,0.08-0.09,0.12-0.13
		s0.09-0.06,0.15-0.08c0.06-0.02,0.14-0.04,0.22-0.04c0.09-0.01,0.2-0.01,0.35-0.01c0.16,0,0.29,0,0.4,0.01s0.19,0.02,0.25,0.05
		c0.06,0.02,0.1,0.05,0.13,0.09s0.03,0.08,0.03,0.12V13.95z"/>
	<path d="M165.13,13.93c0,0.05-0.01,0.09-0.04,0.12s-0.07,0.06-0.14,0.09s-0.15,0.04-0.26,0.05c-0.11,0.01-0.25,0.02-0.41,0.02
		c-0.17,0-0.31-0.01-0.42-0.02c-0.11-0.01-0.2-0.03-0.27-0.05c-0.07-0.02-0.11-0.05-0.14-0.09c-0.03-0.03-0.04-0.07-0.04-0.12v-2.1
		c-0.22,0.1-0.46,0.17-0.71,0.22c-0.25,0.05-0.53,0.07-0.84,0.07c-0.46,0-0.84-0.05-1.14-0.16c-0.3-0.11-0.55-0.26-0.73-0.46
		c-0.18-0.2-0.31-0.43-0.39-0.69c-0.08-0.26-0.11-0.6-0.11-1.01V7.84c0-0.05,0.01-0.09,0.04-0.12c0.03-0.03,0.07-0.06,0.14-0.09
		c0.07-0.02,0.15-0.04,0.26-0.05s0.25-0.02,0.42-0.02s0.31,0.01,0.42,0.02s0.2,0.03,0.26,0.05c0.07,0.02,0.11,0.05,0.14,0.09
		c0.02,0.03,0.04,0.07,0.04,0.12v1.7c0,0.3,0.02,0.52,0.07,0.66s0.11,0.25,0.19,0.33s0.18,0.14,0.3,0.18s0.25,0.05,0.41,0.05
		c0.22,0,0.43-0.03,0.64-0.08c0.21-0.05,0.41-0.13,0.61-0.23V7.84c0-0.05,0.01-0.09,0.04-0.12c0.02-0.03,0.07-0.06,0.14-0.09
		c0.07-0.02,0.15-0.04,0.27-0.05c0.11-0.01,0.25-0.02,0.42-0.02c0.16,0,0.3,0.01,0.41,0.02c0.11,0.01,0.2,0.03,0.26,0.05
		s0.11,0.05,0.14,0.09s0.04,0.07,0.04,0.12V13.93z"/>
	<path d="M172.49,10.71c0,0.21-0.05,0.36-0.14,0.46c-0.09,0.1-0.22,0.15-0.39,0.15h-3.71c0,0.26,0.03,0.5,0.09,0.71
		c0.06,0.21,0.16,0.39,0.29,0.54c0.13,0.15,0.31,0.26,0.52,0.34c0.21,0.08,0.47,0.12,0.76,0.12c0.3,0,0.57-0.02,0.79-0.06
		s0.42-0.09,0.59-0.14c0.17-0.05,0.3-0.1,0.41-0.14s0.2-0.06,0.27-0.06c0.04,0,0.08,0.01,0.1,0.02s0.05,0.04,0.07,0.09
		s0.03,0.1,0.04,0.17c0.01,0.08,0.01,0.17,0.01,0.28c0,0.1,0,0.19-0.01,0.26s-0.01,0.13-0.02,0.18s-0.02,0.09-0.04,0.13
		s-0.04,0.07-0.07,0.1c-0.03,0.03-0.11,0.08-0.24,0.13s-0.3,0.11-0.51,0.16s-0.44,0.1-0.7,0.14s-0.55,0.06-0.85,0.06
		c-0.54,0-1.02-0.07-1.42-0.21c-0.41-0.14-0.75-0.34-1.02-0.62s-0.48-0.63-0.61-1.05c-0.13-0.42-0.2-0.92-0.2-1.49
		c0-0.54,0.07-1.03,0.21-1.47s0.35-0.8,0.62-1.11s0.6-0.53,0.98-0.69c0.38-0.16,0.82-0.24,1.3-0.24c0.51,0,0.95,0.08,1.31,0.23
		c0.36,0.15,0.66,0.36,0.89,0.63s0.4,0.58,0.51,0.95s0.16,0.76,0.16,1.19V10.71z M170.82,10.22c0.01-0.48-0.08-0.86-0.29-1.14
		c-0.21-0.28-0.53-0.41-0.96-0.41c-0.22,0-0.41,0.04-0.57,0.12c-0.16,0.08-0.3,0.19-0.4,0.33c-0.11,0.14-0.19,0.3-0.25,0.49
		c-0.06,0.19-0.09,0.39-0.1,0.6H170.82z"/>
	<path d="M178.52,12.96c0,0.12,0,0.22-0.01,0.3c-0.01,0.08-0.02,0.15-0.03,0.2c-0.01,0.05-0.02,0.1-0.04,0.13
		c-0.02,0.03-0.05,0.08-0.11,0.13s-0.15,0.12-0.28,0.19s-0.28,0.14-0.45,0.2s-0.35,0.11-0.55,0.14c-0.2,0.04-0.4,0.05-0.61,0.05
		c-0.47,0-0.89-0.07-1.25-0.22c-0.36-0.15-0.67-0.36-0.91-0.65s-0.43-0.63-0.56-1.04c-0.13-0.41-0.19-0.88-0.19-1.41
		c0-0.61,0.08-1.14,0.23-1.58c0.15-0.44,0.37-0.81,0.64-1.1s0.6-0.51,0.97-0.65s0.78-0.21,1.23-0.21c0.18,0,0.36,0.02,0.54,0.05
		c0.18,0.03,0.34,0.08,0.49,0.13c0.15,0.05,0.29,0.12,0.41,0.18c0.12,0.07,0.21,0.13,0.26,0.18s0.08,0.09,0.11,0.13
		c0.02,0.03,0.04,0.08,0.05,0.13c0.01,0.05,0.02,0.12,0.03,0.2c0.01,0.08,0.01,0.18,0.01,0.29c0,0.26-0.02,0.45-0.07,0.56
		s-0.1,0.16-0.18,0.16c-0.08,0-0.16-0.03-0.25-0.1s-0.19-0.13-0.31-0.21s-0.26-0.15-0.42-0.21s-0.36-0.1-0.59-0.1
		c-0.45,0-0.79,0.17-1.03,0.52s-0.36,0.85-0.36,1.51c0,0.33,0.03,0.62,0.09,0.87s0.15,0.46,0.26,0.63c0.12,0.17,0.26,0.29,0.44,0.38
		c0.18,0.08,0.38,0.13,0.61,0.13c0.24,0,0.44-0.04,0.61-0.11c0.17-0.07,0.32-0.15,0.45-0.24s0.23-0.17,0.32-0.24
		s0.16-0.11,0.22-0.11c0.04,0,0.08,0.01,0.1,0.03s0.05,0.06,0.06,0.13c0.02,0.06,0.03,0.14,0.04,0.24S178.52,12.81,178.52,12.96z"/>
	<path d="M185.49,14c0,0.04-0.01,0.07-0.04,0.09c-0.03,0.02-0.07,0.05-0.13,0.06s-0.15,0.03-0.26,0.04
		c-0.11,0.01-0.25,0.01-0.42,0.01c-0.19,0-0.35,0-0.47-0.01s-0.22-0.02-0.29-0.04s-0.13-0.04-0.16-0.07s-0.06-0.07-0.08-0.12
		l-0.57-1.46c-0.07-0.2-0.14-0.36-0.22-0.49c-0.08-0.13-0.17-0.24-0.26-0.32s-0.21-0.14-0.33-0.17s-0.26-0.05-0.42-0.05h-0.35v2.49
		c0,0.03-0.02,0.06-0.05,0.09s-0.08,0.06-0.15,0.08s-0.16,0.04-0.27,0.05s-0.24,0.02-0.4,0.02c-0.16,0-0.29-0.01-0.4-0.02
		s-0.2-0.03-0.27-0.05s-0.12-0.05-0.15-0.08c-0.03-0.03-0.04-0.06-0.04-0.09V7.8c0-0.03,0.01-0.06,0.04-0.09
		c0.03-0.03,0.08-0.05,0.15-0.08s0.16-0.04,0.27-0.05s0.24-0.02,0.4-0.02c0.16,0,0.29,0.01,0.4,0.02s0.2,0.03,0.27,0.05
		s0.12,0.05,0.15,0.08s0.05,0.06,0.05,0.09v2.37h0.35c0.14,0,0.27-0.02,0.38-0.05s0.22-0.09,0.31-0.17
		c0.09-0.08,0.18-0.19,0.26-0.32c0.08-0.13,0.16-0.3,0.23-0.49l0.51-1.31c0.01-0.05,0.04-0.09,0.07-0.12s0.08-0.06,0.15-0.08
		c0.07-0.02,0.16-0.04,0.27-0.04c0.12-0.01,0.27-0.01,0.46-0.01c0.17,0,0.31,0,0.41,0.01c0.11,0.01,0.19,0.02,0.25,0.04
		c0.06,0.02,0.1,0.04,0.13,0.06s0.03,0.06,0.03,0.09c0,0.05-0.01,0.1-0.03,0.16s-0.05,0.15-0.1,0.26l-0.49,1.16
		c-0.1,0.23-0.2,0.43-0.3,0.59c-0.11,0.16-0.22,0.29-0.33,0.4c-0.11,0.1-0.22,0.19-0.34,0.25s-0.22,0.11-0.33,0.15v0.01
		c0.14,0.06,0.27,0.12,0.4,0.19s0.24,0.16,0.35,0.27c0.11,0.11,0.22,0.25,0.32,0.41c0.1,0.16,0.2,0.36,0.3,0.58l0.59,1.37
		c0.03,0.06,0.05,0.11,0.06,0.15c0.02,0.04,0.03,0.08,0.04,0.12s0.01,0.06,0.02,0.09C185.49,13.96,185.49,13.98,185.49,14z"/>
	<path d="M192.76,13.95c0,0.05-0.01,0.08-0.04,0.12c-0.03,0.03-0.07,0.06-0.13,0.08s-0.15,0.04-0.26,0.04
		c-0.11,0.01-0.24,0.01-0.41,0.01s-0.3,0-0.41-0.01c-0.11-0.01-0.2-0.02-0.27-0.04c-0.07-0.02-0.12-0.05-0.15-0.08
		c-0.03-0.03-0.04-0.07-0.04-0.12v-2.72c0-0.19,0.01-0.39,0.02-0.59c0.01-0.21,0.03-0.41,0.05-0.6c-0.11,0.19-0.23,0.38-0.36,0.56
		s-0.26,0.37-0.39,0.55l-2.06,2.8c-0.04,0.05-0.08,0.09-0.12,0.13s-0.08,0.06-0.14,0.08c-0.06,0.02-0.13,0.03-0.21,0.04
		s-0.2,0.01-0.33,0.01c-0.16,0-0.3,0-0.4-0.01c-0.1-0.01-0.19-0.02-0.25-0.04c-0.06-0.02-0.11-0.05-0.13-0.08
		c-0.02-0.03-0.04-0.07-0.04-0.12V7.83c0-0.04,0.01-0.08,0.04-0.11c0.03-0.03,0.07-0.06,0.14-0.09c0.07-0.02,0.15-0.04,0.26-0.05
		c0.11-0.01,0.24-0.02,0.41-0.02c0.32,0,0.55,0.02,0.68,0.07s0.2,0.11,0.2,0.2v2.71c0,0.19-0.01,0.38-0.02,0.58
		s-0.03,0.39-0.05,0.58c0.11-0.18,0.22-0.36,0.33-0.54s0.23-0.35,0.36-0.52l2.08-2.8c0.04-0.05,0.08-0.09,0.12-0.13
		s0.09-0.06,0.15-0.08c0.06-0.02,0.14-0.04,0.22-0.04c0.09-0.01,0.2-0.01,0.35-0.01c0.16,0,0.29,0,0.4,0.01s0.19,0.02,0.25,0.05
		c0.06,0.02,0.1,0.05,0.13,0.09s0.03,0.08,0.03,0.12V13.95z"/>
	<path d="M200.11,10.71c0,0.21-0.05,0.36-0.14,0.46c-0.09,0.1-0.22,0.15-0.39,0.15h-3.71c0,0.26,0.03,0.5,0.09,0.71
		c0.06,0.21,0.16,0.39,0.29,0.54c0.13,0.15,0.31,0.26,0.52,0.34c0.21,0.08,0.47,0.12,0.76,0.12c0.3,0,0.57-0.02,0.79-0.06
		s0.42-0.09,0.59-0.14c0.17-0.05,0.3-0.1,0.41-0.14s0.2-0.06,0.27-0.06c0.04,0,0.08,0.01,0.1,0.02s0.05,0.04,0.07,0.09
		s0.03,0.1,0.04,0.17c0.01,0.08,0.01,0.17,0.01,0.28c0,0.1,0,0.19-0.01,0.26s-0.01,0.13-0.02,0.18s-0.02,0.09-0.04,0.13
		s-0.04,0.07-0.07,0.1c-0.03,0.03-0.11,0.08-0.24,0.13s-0.3,0.11-0.51,0.16s-0.44,0.1-0.7,0.14s-0.55,0.06-0.85,0.06
		c-0.54,0-1.02-0.07-1.42-0.21c-0.41-0.14-0.75-0.34-1.02-0.62s-0.48-0.63-0.61-1.05c-0.13-0.42-0.2-0.92-0.2-1.49
		c0-0.54,0.07-1.03,0.21-1.47s0.35-0.8,0.62-1.11s0.6-0.53,0.98-0.69c0.38-0.16,0.82-0.24,1.3-0.24c0.51,0,0.95,0.08,1.31,0.23
		c0.36,0.15,0.66,0.36,0.89,0.63s0.4,0.58,0.51,0.95s0.16,0.76,0.16,1.19V10.71z M198.44,10.22c0.01-0.48-0.08-0.86-0.29-1.14
		c-0.21-0.28-0.53-0.41-0.96-0.41c-0.22,0-0.41,0.04-0.57,0.12c-0.16,0.08-0.3,0.19-0.4,0.33c-0.11,0.14-0.19,0.3-0.25,0.49
		c-0.06,0.19-0.09,0.39-0.1,0.6H198.44z"/>
</g>
<g>
	<path class="st0" d="M117.51,31.63c0,0.05-0.01,0.09-0.04,0.13s-0.08,0.06-0.15,0.08c-0.07,0.02-0.17,0.04-0.28,0.05
		c-0.12,0.01-0.27,0.02-0.46,0.02c-0.2,0-0.35-0.01-0.48-0.02c-0.12-0.01-0.22-0.03-0.29-0.05c-0.07-0.03-0.13-0.06-0.16-0.1
		c-0.04-0.04-0.06-0.1-0.08-0.16l-0.71-1.97c-0.1-0.29-0.21-0.53-0.31-0.72c-0.11-0.19-0.23-0.35-0.36-0.47
		c-0.13-0.12-0.28-0.21-0.45-0.26c-0.17-0.05-0.36-0.08-0.57-0.08h-0.4v3.54c0,0.05-0.01,0.09-0.04,0.13s-0.08,0.06-0.14,0.09
		c-0.07,0.02-0.16,0.04-0.27,0.05c-0.11,0.01-0.26,0.02-0.44,0.02c-0.17,0-0.32-0.01-0.43-0.02c-0.12-0.01-0.21-0.03-0.28-0.05
		c-0.07-0.03-0.12-0.05-0.15-0.09c-0.03-0.03-0.04-0.08-0.04-0.13v-8.36c0-0.05,0.01-0.09,0.04-0.13c0.03-0.03,0.08-0.06,0.15-0.09
		c0.07-0.02,0.16-0.04,0.28-0.05c0.12-0.01,0.26-0.02,0.43-0.02c0.18,0,0.32,0.01,0.44,0.02c0.11,0.01,0.21,0.03,0.27,0.05
		c0.07,0.02,0.12,0.05,0.14,0.09s0.04,0.08,0.04,0.13v3.32h0.4c0.21,0,0.38-0.03,0.54-0.08s0.29-0.14,0.42-0.26
		c0.13-0.12,0.24-0.27,0.34-0.46c0.1-0.19,0.2-0.42,0.3-0.7l0.59-1.76c0.02-0.06,0.05-0.12,0.08-0.16c0.03-0.04,0.08-0.08,0.15-0.1
		c0.07-0.03,0.16-0.04,0.28-0.05c0.12-0.01,0.27-0.02,0.47-0.02c0.18,0,0.32,0.01,0.44,0.02c0.12,0.01,0.21,0.03,0.27,0.05
		c0.07,0.02,0.11,0.05,0.13,0.08s0.03,0.08,0.03,0.13c0,0.06-0.01,0.13-0.03,0.22c-0.02,0.09-0.06,0.2-0.11,0.34l-0.59,1.57
		c-0.11,0.29-0.22,0.54-0.33,0.75s-0.22,0.38-0.35,0.52c-0.12,0.14-0.25,0.26-0.38,0.35c-0.13,0.09-0.28,0.17-0.45,0.23v0.01
		c0.18,0.08,0.35,0.17,0.5,0.26c0.15,0.1,0.29,0.22,0.42,0.37c0.13,0.15,0.25,0.33,0.37,0.55s0.24,0.49,0.36,0.81l0.72,1.83
		c0.07,0.19,0.12,0.32,0.13,0.39C117.51,31.53,117.51,31.58,117.51,31.63z"/>
	<path class="st0" d="M124.71,28.53c0,0.52-0.07,0.99-0.21,1.42c-0.14,0.43-0.34,0.8-0.62,1.11c-0.28,0.31-0.63,0.55-1.05,0.72
		c-0.42,0.17-0.91,0.25-1.47,0.25c-0.54,0-1.01-0.08-1.42-0.23s-0.73-0.37-1-0.66s-0.46-0.64-0.59-1.06
		c-0.13-0.42-0.19-0.9-0.19-1.44c0-0.52,0.07-0.99,0.21-1.42c0.14-0.43,0.35-0.8,0.63-1.11s0.63-0.55,1.04-0.71
		c0.42-0.17,0.91-0.25,1.47-0.25c0.55,0,1.02,0.07,1.42,0.22c0.4,0.15,0.73,0.37,1,0.65c0.26,0.29,0.46,0.64,0.58,1.06
		C124.65,27.5,124.71,27.98,124.71,28.53z M122.94,28.59c0-0.3-0.02-0.58-0.07-0.83c-0.05-0.25-0.13-0.47-0.24-0.66
		c-0.11-0.19-0.27-0.33-0.45-0.44c-0.19-0.1-0.43-0.16-0.71-0.16c-0.25,0-0.48,0.05-0.67,0.14c-0.19,0.09-0.35,0.23-0.47,0.41
		c-0.12,0.18-0.22,0.4-0.28,0.65c-0.06,0.25-0.09,0.54-0.09,0.86c0,0.3,0.03,0.58,0.08,0.83s0.13,0.47,0.24,0.66
		c0.11,0.19,0.26,0.33,0.46,0.43s0.43,0.15,0.71,0.15c0.26,0,0.49-0.05,0.68-0.14c0.19-0.09,0.35-0.23,0.47-0.41
		s0.21-0.39,0.27-0.65S122.94,28.92,122.94,28.59z"/>
	<path d="M134.67,31.6c0.01,0.11-0.04,0.19-0.16,0.24c-0.11,0.05-0.32,0.07-0.61,0.07c-0.18,0-0.32,0-0.43-0.01
		c-0.11,0-0.19-0.02-0.25-0.03c-0.06-0.02-0.1-0.04-0.12-0.08c-0.02-0.03-0.03-0.08-0.04-0.13l-0.36-3.27
		c-0.01-0.12-0.03-0.25-0.04-0.4c-0.01-0.15-0.02-0.29-0.04-0.44c-0.01-0.15-0.02-0.3-0.03-0.45c-0.01-0.15-0.02-0.28-0.03-0.4
		l0.01-0.17c-0.03,0.12-0.07,0.26-0.11,0.4c-0.04,0.15-0.08,0.29-0.13,0.44s-0.09,0.3-0.13,0.45c-0.04,0.15-0.08,0.28-0.12,0.4
		l-1.07,3.38c-0.02,0.05-0.05,0.1-0.08,0.14s-0.09,0.07-0.15,0.1c-0.07,0.02-0.15,0.04-0.25,0.05c-0.1,0.01-0.23,0.02-0.39,0.02
		c-0.14,0-0.26-0.01-0.36-0.02c-0.1-0.01-0.18-0.03-0.25-0.05c-0.07-0.03-0.12-0.06-0.15-0.1s-0.06-0.09-0.08-0.15l-1.05-3.37
		c-0.04-0.12-0.08-0.25-0.12-0.4c-0.04-0.15-0.09-0.29-0.13-0.44c-0.04-0.15-0.08-0.3-0.12-0.45c-0.04-0.15-0.07-0.28-0.1-0.41
		l0.01,0.17c-0.01,0.12-0.02,0.25-0.03,0.4c-0.01,0.15-0.02,0.3-0.03,0.45s-0.03,0.3-0.04,0.44c-0.01,0.15-0.03,0.28-0.03,0.4
		l-0.35,3.23c-0.01,0.06-0.03,0.11-0.05,0.15c-0.02,0.04-0.07,0.07-0.13,0.09c-0.06,0.02-0.15,0.04-0.26,0.04s-0.25,0.01-0.43,0.01
		c-0.16,0-0.29,0-0.38-0.01c-0.1-0.01-0.17-0.03-0.22-0.05c-0.05-0.03-0.09-0.06-0.1-0.1c-0.02-0.04-0.02-0.09-0.02-0.15l0.6-5.71
		c0.02-0.2,0.09-0.34,0.19-0.44c0.1-0.1,0.26-0.15,0.48-0.15h0.87c0.18,0,0.34,0.01,0.46,0.04s0.24,0.08,0.33,0.14
		s0.18,0.16,0.24,0.28c0.06,0.12,0.12,0.27,0.17,0.44l0.68,2.09c0.04,0.14,0.08,0.28,0.12,0.43c0.04,0.15,0.08,0.3,0.12,0.44
		c0.04,0.15,0.08,0.29,0.11,0.43c0.04,0.14,0.07,0.27,0.09,0.39h0.01c0.03-0.12,0.06-0.26,0.1-0.4c0.04-0.15,0.07-0.29,0.11-0.44
		c0.04-0.15,0.08-0.3,0.12-0.44c0.04-0.15,0.08-0.28,0.13-0.41l0.68-2.08c0.05-0.16,0.1-0.3,0.15-0.42s0.13-0.21,0.21-0.28
		c0.09-0.07,0.19-0.12,0.32-0.16s0.29-0.05,0.47-0.05h0.86c0.22,0,0.38,0.05,0.49,0.15c0.11,0.1,0.17,0.25,0.19,0.44L134.67,31.6z"
		/>
	<path d="M141.81,31.64c0,0.05-0.01,0.09-0.04,0.12s-0.07,0.06-0.14,0.08c-0.07,0.02-0.15,0.04-0.26,0.05
		c-0.11,0.01-0.25,0.02-0.42,0.02c-0.16,0-0.3-0.01-0.41-0.02c-0.11-0.01-0.2-0.03-0.27-0.05c-0.07-0.02-0.12-0.05-0.14-0.08
		c-0.03-0.03-0.04-0.07-0.04-0.12v-4.91h-2.3v4.91c0,0.05-0.01,0.09-0.04,0.12c-0.03,0.03-0.08,0.06-0.14,0.08
		c-0.07,0.02-0.15,0.04-0.26,0.05c-0.11,0.01-0.25,0.02-0.42,0.02s-0.31-0.01-0.42-0.02c-0.11-0.01-0.2-0.03-0.26-0.05
		c-0.07-0.02-0.11-0.05-0.14-0.08c-0.02-0.03-0.04-0.07-0.04-0.12v-5.78c0-0.18,0.04-0.32,0.12-0.41c0.08-0.09,0.2-0.14,0.36-0.14
		h4.8c0.16,0,0.28,0.05,0.36,0.14c0.08,0.09,0.12,0.23,0.12,0.41V31.64z"/>
	<path d="M148.73,31.66c0,0.06-0.02,0.11-0.07,0.15c-0.05,0.04-0.12,0.06-0.21,0.08c-0.1,0.02-0.24,0.02-0.43,0.02
		c-0.21,0-0.35-0.01-0.45-0.02c-0.09-0.02-0.16-0.04-0.2-0.08c-0.04-0.04-0.06-0.09-0.06-0.15v-0.49c-0.25,0.27-0.54,0.48-0.86,0.63
		c-0.32,0.15-0.68,0.23-1.07,0.23c-0.32,0-0.62-0.04-0.89-0.13c-0.27-0.08-0.51-0.21-0.7-0.38c-0.2-0.17-0.35-0.37-0.46-0.62
		s-0.16-0.53-0.16-0.86c0-0.36,0.07-0.66,0.21-0.93c0.14-0.26,0.35-0.48,0.62-0.65c0.28-0.17,0.62-0.3,1.03-0.38
		s0.89-0.12,1.43-0.12h0.59V27.6c0-0.19-0.02-0.36-0.06-0.5c-0.04-0.14-0.1-0.26-0.19-0.36c-0.09-0.1-0.21-0.17-0.36-0.21
		c-0.15-0.04-0.33-0.07-0.55-0.07c-0.29,0-0.54,0.03-0.77,0.1c-0.22,0.06-0.42,0.13-0.6,0.21c-0.17,0.08-0.32,0.15-0.43,0.21
		c-0.12,0.06-0.21,0.1-0.28,0.1c-0.05,0-0.09-0.02-0.13-0.05c-0.04-0.03-0.07-0.08-0.1-0.14c-0.02-0.06-0.04-0.13-0.06-0.22
		c-0.01-0.09-0.02-0.18-0.02-0.29c0-0.14,0.01-0.25,0.03-0.33s0.07-0.16,0.13-0.22c0.06-0.07,0.18-0.14,0.33-0.22
		c0.16-0.08,0.35-0.15,0.56-0.22s0.45-0.12,0.7-0.17c0.25-0.04,0.51-0.07,0.78-0.07c0.48,0,0.89,0.05,1.23,0.14
		c0.34,0.09,0.62,0.24,0.84,0.43c0.22,0.19,0.38,0.44,0.48,0.75c0.1,0.31,0.15,0.67,0.15,1.09V31.66z M147.04,29.04h-0.66
		c-0.28,0-0.51,0.02-0.71,0.06s-0.36,0.1-0.48,0.18s-0.21,0.18-0.27,0.3c-0.06,0.12-0.08,0.25-0.08,0.4c0,0.26,0.08,0.46,0.24,0.6
		c0.16,0.15,0.39,0.22,0.67,0.22c0.24,0,0.46-0.06,0.67-0.18c0.2-0.12,0.41-0.3,0.62-0.54V29.04z"/>
	<path d="M156.36,31.64c0,0.05-0.01,0.09-0.04,0.12s-0.07,0.06-0.14,0.08c-0.06,0.02-0.15,0.04-0.26,0.05
		c-0.11,0.01-0.25,0.02-0.41,0.02c-0.17,0-0.31-0.01-0.42-0.02c-0.11-0.01-0.2-0.03-0.26-0.05c-0.06-0.02-0.11-0.05-0.14-0.08
		s-0.04-0.07-0.04-0.12v-2.4h-2.47v2.4c0,0.05-0.01,0.09-0.04,0.12s-0.07,0.06-0.14,0.08c-0.07,0.02-0.15,0.04-0.26,0.05
		c-0.11,0.01-0.25,0.02-0.42,0.02s-0.31-0.01-0.42-0.02c-0.11-0.01-0.2-0.03-0.26-0.05c-0.07-0.02-0.11-0.05-0.14-0.08
		s-0.04-0.07-0.04-0.12v-6.1c0-0.04,0.01-0.08,0.04-0.12s0.07-0.06,0.14-0.09c0.07-0.02,0.15-0.04,0.26-0.05
		c0.11-0.01,0.25-0.02,0.42-0.02s0.31,0.01,0.42,0.02c0.11,0.01,0.2,0.03,0.26,0.05c0.07,0.02,0.11,0.05,0.14,0.09
		s0.04,0.07,0.04,0.12v2.28h2.47v-2.28c0-0.04,0.01-0.08,0.04-0.12s0.07-0.06,0.14-0.09c0.06-0.02,0.15-0.04,0.26-0.05
		c0.11-0.01,0.25-0.02,0.42-0.02c0.16,0,0.3,0.01,0.41,0.02c0.11,0.01,0.2,0.03,0.26,0.05c0.06,0.02,0.11,0.05,0.14,0.09
		s0.04,0.07,0.04,0.12V31.64z"/>
	<path d="M164.16,31.66c0,0.05-0.01,0.08-0.04,0.12c-0.03,0.03-0.07,0.06-0.13,0.08s-0.15,0.04-0.26,0.04
		c-0.11,0.01-0.24,0.01-0.41,0.01s-0.3,0-0.41-0.01c-0.11-0.01-0.2-0.02-0.27-0.04c-0.07-0.02-0.12-0.05-0.15-0.08
		c-0.03-0.03-0.04-0.07-0.04-0.12v-2.72c0-0.19,0.01-0.39,0.02-0.59c0.01-0.21,0.03-0.41,0.05-0.6c-0.11,0.19-0.23,0.38-0.36,0.56
		s-0.26,0.37-0.39,0.55l-2.06,2.8c-0.04,0.05-0.08,0.09-0.12,0.13s-0.08,0.06-0.14,0.08c-0.06,0.02-0.13,0.03-0.21,0.04
		s-0.2,0.01-0.33,0.01c-0.16,0-0.3,0-0.4-0.01c-0.1-0.01-0.19-0.02-0.25-0.04c-0.06-0.02-0.11-0.05-0.13-0.08
		c-0.02-0.03-0.04-0.07-0.04-0.12v-6.12c0-0.04,0.01-0.08,0.04-0.11c0.03-0.03,0.07-0.06,0.14-0.09c0.07-0.02,0.15-0.04,0.26-0.05
		c0.11-0.01,0.24-0.02,0.41-0.02c0.32,0,0.55,0.02,0.68,0.07c0.13,0.05,0.2,0.11,0.2,0.2v2.71c0,0.19-0.01,0.38-0.02,0.58
		c-0.01,0.2-0.03,0.39-0.05,0.58c0.11-0.18,0.22-0.36,0.33-0.54c0.11-0.18,0.23-0.35,0.36-0.52l2.08-2.8
		c0.04-0.05,0.08-0.09,0.12-0.13s0.09-0.06,0.15-0.08c0.06-0.02,0.14-0.04,0.22-0.04c0.09-0.01,0.2-0.01,0.35-0.01
		c0.16,0,0.29,0,0.4,0.01c0.1,0.01,0.19,0.03,0.25,0.05c0.06,0.02,0.1,0.05,0.13,0.09c0.02,0.04,0.03,0.08,0.03,0.12V31.66z"/>
	<path d="M171.95,31.66c0,0.05-0.01,0.08-0.04,0.12c-0.03,0.03-0.07,0.06-0.13,0.08s-0.15,0.04-0.26,0.04
		c-0.11,0.01-0.24,0.01-0.41,0.01s-0.3,0-0.41-0.01c-0.11-0.01-0.2-0.02-0.27-0.04c-0.07-0.02-0.12-0.05-0.15-0.08
		c-0.03-0.03-0.04-0.07-0.04-0.12v-2.72c0-0.19,0.01-0.39,0.02-0.59c0.01-0.21,0.03-0.41,0.05-0.6c-0.11,0.19-0.23,0.38-0.36,0.56
		s-0.26,0.37-0.39,0.55l-2.06,2.8c-0.04,0.05-0.08,0.09-0.12,0.13s-0.08,0.06-0.14,0.08c-0.06,0.02-0.13,0.03-0.21,0.04
		s-0.2,0.01-0.33,0.01c-0.16,0-0.3,0-0.4-0.01c-0.1-0.01-0.19-0.02-0.25-0.04c-0.06-0.02-0.11-0.05-0.13-0.08
		c-0.02-0.03-0.04-0.07-0.04-0.12v-6.12c0-0.04,0.01-0.08,0.04-0.11c0.03-0.03,0.07-0.06,0.14-0.09c0.07-0.02,0.15-0.04,0.26-0.05
		c0.11-0.01,0.24-0.02,0.41-0.02c0.32,0,0.55,0.02,0.68,0.07c0.13,0.05,0.2,0.11,0.2,0.2v2.71c0,0.19-0.01,0.38-0.02,0.58
		c-0.01,0.2-0.03,0.39-0.05,0.58c0.11-0.18,0.22-0.36,0.33-0.54c0.11-0.18,0.23-0.35,0.36-0.52l2.08-2.8
		c0.04-0.05,0.08-0.09,0.12-0.13s0.09-0.06,0.15-0.08c0.06-0.02,0.14-0.04,0.22-0.04c0.09-0.01,0.2-0.01,0.35-0.01
		c0.16,0,0.29,0,0.4,0.01c0.1,0.01,0.19,0.03,0.25,0.05c0.06,0.02,0.1,0.05,0.13,0.09c0.02,0.04,0.03,0.08,0.03,0.12V31.66z"/>
</g>
</svg>
